<svg version="1.1" id="Calque_1" xmlns="http://www.w3.org/2000/svg" x="0px" y="0px"
     viewBox="0 0 512 512" style="enable-background:new 0 0 512 512;" xml:space="preserve">
<g>
	<path d="M168.1,131.7h-25.8c-2.1,0-3.9,1.8-3.9,3.4v235.7c0,2.1,1.8,3.7,3.9,3.7h25.8c2,0,3.6-1.7,3.6-3.7V135.1
		C171.7,133.6,169.9,131.7,168.1,131.7z"/>
  <path d="M100.5,131.7H74.7c-2.1,0-3.9,1.8-3.9,3.4v235.7c0,2.1,1.8,3.7,3.9,3.7h25.8c2,0,3.6-1.7,3.6-3.7l0-235.7
		C104.1,133.6,102.3,131.7,100.5,131.7z"/>
  <path d="M236,131.7h-25.8c-2.1,0-3.9,1.8-3.9,3.4v235.7c0,2.1,1.8,3.7,3.9,3.7H236c2-0.1,3.6-1.7,3.6-3.7V135.1
		C239.6,133.6,237.8,131.7,236,131.7z"/>
  <path d="M32.9,131.7H7.1c-2.1,0-3.9,1.8-3.9,3.4v235.7c0,2.1,1.8,3.7,3.9,3.7h25.8c2,0,3.6-1.7,3.6-3.7l0-235.7
		C36.5,133.6,34.7,131.7,32.9,131.7z"/>
  <path d="M505.4,270.7H276.2c-1.5,0-3.3,1.8-3.3,3.7v26.5c0,2.2,1.8,4,3.3,4h229.2c2.1,0,3.6-1.9,3.6-4v-26.5
		C509,272.5,507.5,270.7,505.4,270.7z"/>
  <path d="M505.4,131.4H276.2c-1.5,0-3.3,1.9-3.3,3.7v26.6c0,2.2,1.8,4,3.3,4h229.2c2.1,0,3.6-1.8,3.6-4v-26.6
		C509,133.3,507.5,131.4,505.4,131.4z"/>
  <path d="M505.4,201.2H276.2c-1.5,0-3.3,1.8-3.3,3.7v26.6c0,2.2,1.8,4,3.3,4h229.2c2.1,0,3.6-1.9,3.6-4v-26.6
		C509,203.1,507.5,201.2,505.4,201.2z"/>
  <path d="M505.4,340.2H276.2c-1.5,0-3.3,1.9-3.3,3.7v26.6c0,2.2,1.8,4,3.3,4h229.2c2.1,0,3.6-1.8,3.6-4v-26.6
		C509,342,507.5,340.2,505.4,340.2z"/>
</g>
</svg>
