<svg version="1.1" id="Calque_1" xmlns="http://www.w3.org/2000/svg" x="0px" y="0px"
     viewBox="0 0 512 512" style="enable-background:new 0 0 512 512;" xml:space="preserve">
<style type="text/css">
	.st0{fill:#FFFFFF;}
  .st1{fill:#2F3A3E;}
  .st2{fill:#3AB14A;}
</style>
  <path class="st0" d="M450.6,104.8L289,8.9c-19.2-11.5-43.1-11.5-62.3,0L65.1,104.8c-19.4,11.7-31.3,32.8-31.2,55.5v191.8
	c-0.1,22.7,11.7,43.8,31.2,55.5l161.5,95.9c19.2,11.4,43.1,11.4,62.3,0l161.5-95.9c19.4-11.7,31.3-32.8,31.2-55.5V160.3
	C481.8,137.6,470,116.5,450.6,104.8z"/>
  <path class="st1" d="M450.6,104.8L289,8.9c-19.2-11.5-43.1-11.5-62.3,0L65.1,104.8c-19.4,11.7-31.3,32.8-31.2,55.5v191.8
	c-0.1,22.7,11.7,43.8,31.2,55.5l161.5,95.9c19.2,11.4,43.1,11.4,62.3,0l161.5-95.9c19.4-11.7,31.3-32.8,31.2-55.5V160.3
	C481.8,137.6,470,116.5,450.6,104.8z M232.3,493.6L70.8,397.7c-16-9.7-25.7-27-25.6-45.7V160.3c-0.1-18.7,9.7-36,25.6-45.7
	l161.5-95.9c15.7-9.4,35.3-9.4,51,0l161.4,95.9c13.3,8.1,22.4,21.6,24.8,36.9c-5.4-11.4-17.4-14.6-31.5-6.5l-152.7,94.6
	c-19.1,11.1-33.1,23.6-33.1,46.6v188.3c0,13.7,5.5,22.6,14.1,25.3c-2.8,0.5-5.6,0.8-8.5,0.8C248.9,500.6,240,498.2,232.3,493.6z"/>
  <path class="st2" d="M408.2,370.6L368,394.7c-1.1,0.4-1.8,1.5-1.8,2.6v10.6c0,1.3,0.9,1.8,1.9,1.2l40.9-24.8c1-0.8,1.5-2,1.2-3.2
	v-9.3C410.1,370.5,409.2,370,408.2,370.6L408.2,370.6z"/>
  <path class="st0" d="M322.6,282c1.3-0.6,2.4,0,2.4,1.8l0.1,14c4.8-2.2,10.2-2.9,15.5-1.9c1,0.3,1.4,1.6,1,3.2l-3.1,12.3
	c-0.2,0.9-0.7,1.8-1.4,2.5c-0.2,0.2-0.5,0.4-0.8,0.6c-0.4,0.2-0.8,0.3-1.2,0.2c-5.1-1.1-10.4-0.3-14.9,2.4c-6.6,3-10.8,9.4-11,16.6
	c0,6.5,3.2,8.2,14.5,8.4c14.9,0.3,21.4,6.8,21.5,21.8c-0.4,15.7-7.6,30.5-19.8,40.3l0.3,13.8c0,1.7-0.9,3.3-2.4,4.2l-8.2,4.7
	c-1.3,0.6-2.4,0-2.4-1.8v-13.6c-7,2.9-14.1,3.6-18.6,1.8c-0.8-0.3-1.2-1.6-0.9-3l2.9-12.5c0.2-1,0.7-1.9,1.5-2.6
	c0.2-0.2,0.5-0.4,0.8-0.5c0.4-0.2,0.9-0.2,1.3,0c5.8,1.6,11.9,0.8,17.1-2.2c7.5-3.6,12.4-11.1,12.6-19.4c0-7-3.8-9.9-12.9-10
	c-11.7,0-22.6-2.3-22.9-19.4c0.3-15,7.2-29.1,19-38.4l-0.6-14.1c0-1.7,0.9-3.4,2.4-4.3L322.6,282z"/>
</svg>
