<svg version="1.1" id="Calque_1" xmlns="http://www.w3.org/2000/svg" x="0px" y="0px"
     viewBox="0 0 512 512" style="enable-background:new 0 0 512 512;" xml:space="preserve">
<style type="text/css">
	.st0{fill:url(#SVGID_1_);}
  .st1{fill:url(#SVGID_2_);}
  .st2{fill:url(#SVGID_3_);}
</style>
  <g>
	<linearGradient id="SVGID_1_" gradientUnits="userSpaceOnUse" x1="256" y1="128.4572" x2="256" y2="337.608">
		<stop  offset="0" style="stop-color:#04B6F0"/>
    <stop  offset="1" style="stop-color:#3ECAF0"/>
	</linearGradient>
    <path class="st0" d="M368,152C128.1,152,67.2,141.7,2.1,73.2c27.4,41.2,42.4,118.3,296,114.5c264.6-4.1,103.2,68.2,56.2,149.9
		c84.7-75.6,155.4-125.4,155.7-154.2v-0.3C509.7,161.7,470.2,152,368,152z"/>
    <linearGradient id="SVGID_2_" gradientUnits="userSpaceOnUse" x1="136.533" y1="381.4187" x2="136.533" y2="438.7918">
		<stop  offset="0" style="stop-color:#04B6F0"/>
      <stop  offset="1" style="stop-color:#3ECAF0"/>
	</linearGradient>
    <path class="st1" d="M136.6,366.3C136.6,366.3,136.5,366.3,136.6,366.3c-20.1,0-36.3,16.3-36.3,36.3c0,20,16.2,36.2,36.3,36.2
		c20,0,36.2-16.2,36.2-36.2C172.8,382.5,156.6,366.3,136.6,366.3z"/>
    <linearGradient id="SVGID_3_" gradientUnits="userSpaceOnUse" x1="301.7499" y1="381.4187" x2="301.7499" y2="438.7918">
		<stop  offset="0" style="stop-color:#04B6F0"/>
      <stop  offset="1" style="stop-color:#3ECAF0"/>
	</linearGradient>
    <path class="st2" d="M301.8,366.3C301.8,366.3,301.8,366.3,301.8,366.3c-20.1,0-36.3,16.3-36.3,36.3c0,20,16.2,36.2,36.3,36.2
		c20,0,36.2-16.2,36.2-36.2C338,382.5,321.8,366.3,301.8,366.3z"/>
</g>
</svg>
