<svg version="1.1" id="Calque_1" xmlns="http://www.w3.org/2000/svg" x="0px" y="0px"
     viewBox="0 0 512 169.7" style="enable-background:new 0 0 512 169.7;" xml:space="preserve">
<style type="text/css">
	.st0{fill:#6E298D;}
</style>
  <path class="st0" d="M72.2,26.2L6.4,145.5c0,0-6.5,15.2,7.4,15.2s133.3,0,133.3,0s15.7-1.3,7-17L89.2,24.9c0,0-2.6-7-7.8-7
	C76.1,17.9,72.2,26.2,72.2,26.2z"/>
  <path class="st0" d="M205.7,152.3L271.5,30c0,0,6.5-15.6-7.4-15.6c-13.9,0-133.3,0-133.3,0s-15.7,1.3-7,17.4l64.9,121.8
	c0,0,2.6,7.1,7.8,7.1C201.8,160.8,205.7,152.3,205.7,152.3z"/>
  <path class="st0" d="M498.8,80.7L379.5,14.9c0,0-15.2-6.5-15.2,7.4c0,13.9,0,133.3,0,133.3s1.3,15.7,17,7l118.9-64.9
	c0,0,7-2.6,7-7.8S498.8,80.7,498.8,80.7z"/>
  <path class="st0" d="M341.8,136.9c0,13.7-4.3,24.7-17.5,24.7h-16c-13.2,0-19.1-11.1-19.1-24.7V38.7c0-13.7,5.9-24.7,19.1-24.7h16
	c13.2,0,17.5,11.1,17.5,24.7V136.9z"/>
</svg>
