<svg version="1.1" id="Calque_1" xmlns="http://www.w3.org/2000/svg" x="0px" y="0px"
     viewBox="0 0 512 512" style="enable-background:new 0 0 512 512;" xml:space="preserve">
<style type="text/css">
	.st0{fill:#FFD200;}
</style>
  <path class="st0" d="M459.4,285l-31.8,31.8l13.7-23.1l-63,33.4l42.1-37.7l-96.3,17.5l78.2-35.5L277.7,256l124.7-15.3l-78.2-35.5
	l97.3,18.1l-42.1-37.7l63,33.4l-13.7-23.1l31.8,31.8C475.3,242.9,475.3,269.1,459.4,285 M479.7,198L294.8,13.2l77.6,128.4l-187-97.9
	l142.8,126.9L82.2,125.7l211,95.7L7.7,256l285.8,34.9l-211,95.7l245.9-44.9L185.7,468.6l187-97.9l-77.6,128.4L480,314.3
	C512.4,282.2,512.4,229.8,479.7,198"/>
</svg>
