<svg version="1.1" id="Layer_1" xmlns="http://www.w3.org/2000/svg" x="0px" y="0px"
     viewBox="0 0 32 32" style="enable-background:new 0 0 32 32;" xml:space="preserve">
  <path d="M26.7,6.4c0.5-0.3,0.8-0.5,1.2-0.5c0.7,0,1.1,0.4,1.2,0.7c0.3,0.4,1.2,0.7,1.6,0.7c0.3,0,0.7-0.9,0.9-1.7
	c0.3-0.8,0.3-1.7,0.1-1.9c-0.1-0.1-1.2-0.4-1.5-0.4c-0.1,0.1-0.4,0.3-0.9,0.3s-1.1-0.4-1.5-0.8c-0.7-0.7-1.5-0.9-2.3-1.2
	c-0.8-0.3-1.7-0.3-2.5-0.3c-1.2-0.1-2.5-0.1-3.7,0.3c-0.5,0.1-0.9,0.3-1.5,0.5c-0.1,0.1-0.5,0.3-0.7,0.3c-0.1,0.1-0.1,0.3,0,0.3
	c0.1,0,0.7-0.1,0.7-0.1s-0.7,0.3-0.7,0.5c0,0.1,0.1,0.1,0.1,0.1s0.4-0.1,0.7-0.1c0.5,0,1.3-0.3,2-0.3c0.8,0,1.6,0.3,2.4,1.1
	c1.2,1.5,1.1,3.3,1.1,3.7c-0.3,2.8-6.5,19.9-6.8,21.1c-0.3,1.2-0.3,1.9,1.2,2.3c1.5,0.4,2,0,2.3-0.5C20.3,29.3,24.3,8.3,26.7,6.4
	L26.7,6.4z M21.5,5.1L0,8.4l3.5,22.3l11.5-1.9c-0.1-0.9,2.9-8.9,3.5-10.4l-5.9,0.9l0.8-2.4l4.1-0.7l1.1,1.3c0,0,0.3-0.7,0.3-0.9
	l-5.7-7.1c-0.3-0.4-0.3-0.9,0.1-1.2l0.3-0.3c0.4-0.3,0.9-0.3,1.2,0.1l5.1,5.9c1.1-3.2,2-6,2-6.9C21.9,6.9,21.9,6,21.5,5.1L21.5,5.1z
	 M5.5,18.3l3.6-0.7L8.1,20l-2.4,0.4L5.5,18.3z M13.2,11.5l0.4,0.1c0.5,0.1,0.7,0.7,0.5,1.2l-4,10.7l-2.4,3.2l0.3-4L12,12
	C12.1,11.5,12.7,11.3,13.2,11.5L13.2,11.5z M27.6,7.7c-0.5,0.5-1.2,2.3-2.5,7.3h0.1l0.4,2.1l-1.1,0.1c-0.1,0.7-0.3,1.3-0.5,2.1
	c2.3,1.2,1.1,4.1,0.9,4.1c-0.1,0-0.1,0-0.1-0.1c0-0.1,0.1-0.5-0.3-0.7c-0.3-0.1-0.8-0.3-1.2-0.5c-0.4,1.6-0.8,3.5-1.2,5.5l8.4-1.3
	L27.7,7.6L27.6,7.7z"/>
</svg>
